<svg width="448" height="412" viewBox="0 0 448 412" fill="none" xmlns="http://www.w3.org/2000/svg">
<g filter="url(#filter0_d_6_2)">
<path fill-rule="evenodd" clip-rule="evenodd" d="M224 396C343.294 396 440 307.352 440 198C440 88.6476 343.294 0 224 0C104.706 0 8 88.6476 8 198C8 307.352 104.706 396 224 396Z" fill="white"/>
<path d="M163.097 237.44L156.857 228.08C155.097 228.4 153.31 228.56 151.497 228.56C146.217 228.56 141.363 227.333 136.937 224.88C132.51 222.373 128.99 218.933 126.377 214.56C123.817 210.133 122.537 205.147 122.537 199.6C122.537 194.053 123.817 189.093 126.377 184.72C128.99 180.293 132.51 176.853 136.937 174.4C141.363 171.947 146.217 170.72 151.497 170.72C156.83 170.72 161.683 171.947 166.057 174.4C170.483 176.853 173.977 180.293 176.537 184.72C179.097 189.093 180.377 194.053 180.377 199.6C180.377 204.24 179.443 208.533 177.577 212.48C175.71 216.373 173.15 219.627 169.897 222.24L181.817 237.44H163.097ZM138.537 199.6C138.537 204.027 139.683 207.547 141.977 210.16C144.27 212.72 147.443 214 151.497 214C155.497 214 158.643 212.693 160.937 210.08C163.283 207.467 164.457 203.973 164.457 199.6C164.457 195.12 163.283 191.6 160.937 189.04C158.643 186.427 155.497 185.12 151.497 185.12C147.443 185.12 144.27 186.427 141.977 189.04C139.683 191.6 138.537 195.12 138.537 199.6ZM233.423 183.12V228H217.663V221.6C216.33 223.627 214.49 225.28 212.143 226.56C209.797 227.787 207.103 228.4 204.063 228.4C198.837 228.4 194.703 226.693 191.663 223.28C188.677 219.813 187.183 215.12 187.183 209.2V183.12H202.783V207.2C202.783 209.76 203.45 211.787 204.783 213.28C206.17 214.72 207.983 215.44 210.223 215.44C212.517 215.44 214.33 214.72 215.663 213.28C216.997 211.787 217.663 209.76 217.663 207.2V183.12H233.423ZM250.267 178.96C247.494 178.96 245.254 178.213 243.547 176.72C241.894 175.173 241.067 173.253 241.067 170.96C241.067 168.613 241.894 166.667 243.547 165.12C245.254 163.573 247.494 162.8 250.267 162.8C252.987 162.8 255.174 163.573 256.827 165.12C258.534 166.667 259.387 168.613 259.387 170.96C259.387 173.253 258.534 175.173 256.827 176.72C255.174 178.213 252.987 178.96 250.267 178.96ZM258.027 183.12V228H242.347V183.12H258.027ZM281.837 214.96H300.957V228H264.557V215.6L282.397 196.16H264.717V183.12H300.317V195.52L281.837 214.96Z" fill="#FF3B3C"/>
</g>
<defs>
<filter id="filter0_d_6_2" x="0" y="0" width="448" height="412" filterUnits="userSpaceOnUse" color-interpolation-filters="sRGB">
<feFlood flood-opacity="0" result="BackgroundImageFix"/>
<feColorMatrix in="SourceAlpha" type="matrix" values="0 0 0 0 0 0 0 0 0 0 0 0 0 0 0 0 0 0 127 0" result="hardAlpha"/>
<feOffset dy="8"/>
<feGaussianBlur stdDeviation="4"/>
<feColorMatrix type="matrix" values="0 0 0 0 0 0 0 0 0 0 0 0 0 0 0 0 0 0 0.1 0"/>
<feBlend mode="normal" in2="BackgroundImageFix" result="effect1_dropShadow_6_2"/>
<feBlend mode="normal" in="SourceGraphic" in2="effect1_dropShadow_6_2" result="shape"/>
</filter>
</defs>
</svg>
